<?xml version="1.0" encoding="utf-8"?>
<!-- Generator: Adobe Illustrator 23.0.3, SVG Export Plug-In . SVG Version: 6.00 Build 0)  -->
<svg version="1.1" id="Capa_1" xmlns="http://www.w3.org/2000/svg" xmlns:xlink="http://www.w3.org/1999/xlink" x="0px" y="0px"
	 viewBox="0 0 512.8 487.2" style="enable-background:new 0 0 512.8 487.2;" xml:space="preserve">
<style type="text/css">
	.st0{opacity:0.15;}
	.st1{fill:url(#SVGID_1_);}
	.st2{fill:url(#SVGID_2_);}
	.st3{opacity:0.1;fill:url(#SVGID_3_);}
</style>
<g class="st0">
	
		<linearGradient id="SVGID_1_" gradientUnits="userSpaceOnUse" x1="-2.0612" y1="243.3107" x2="142.4988" y2="243.3107" gradientTransform="matrix(0.9966 -8.224612e-02 8.224612e-02 0.9966 -19.1468 21.8131)">
		<stop  offset="0" style="stop-color:#FFFF99"/>
		<stop  offset="1" style="stop-color:#FF9900"/>
	</linearGradient>
	<path class="st1" d="M136.3,419.4c1.8-9.4,0.1-27.3-4.1-38.2c-0.6-0.2-1.2-0.3-1.9-0.5c-4.6,4.9-7,10.5-8.9,16.3
		c-6.1,20.8,2.1,25.8,3.5,41.8c-14-15.7-26.3-32.5-36.8-50.3c-0.4-21.2,10.3-13.5,14.1-42.6c0.7-5.9,1.1-11.9-0.1-18.8
		c-0.6-0.3-1.1-0.6-1.7-0.9c-5.4,3.4-8.9,7.9-11.9,12.8c-10.4,18-3.2,23.3-6,39.6C73,360.8,65.1,342.2,59,323.1
		c2.5-15.8,6.5-13.2,15.1-23.4c5.1-6.1,10.5-20.5,10.8-31.9c-0.5-0.4-1-0.8-1.5-1.3c-5.8,1.9-10,5.2-13.8,9
		c-15.4,16.1-5.2,18.1-14.1,35.9c-5.3-19-8.8-38.4-10.6-58.1c7.7-23.2,14.9-8.4,29.3-32.1c2.6-4.6,5-9.4,6.4-15.7
		c-0.4-0.5-0.8-1-1.2-1.6c-5.8,0.4-10.4,2.5-14.7,5.1C46.7,221,56.7,226,44,240.2c-0.9-19.2-0.1-38.6,2.4-57.8
		c9.7-17.8,8.3-10.4,23.8-17c7.8-3.4,16.5-14.3,19.9-22.4c-0.2-0.6-0.5-1.2-0.7-1.8c-9.2-1.9-20.8,2.3-26.5,8.9
		c-6.5,7.8-5.1,12-14.2,17.6c3.4-19.2,8.6-38.2,15.6-56.8c0.2,0.2,0.4,0.4,0.5,0.6c18.8-22.7,18.2-3.1,38.4-17.9
		c3.8-2.9,7.4-6.2,10.9-11.4c-0.1-0.7-0.2-1.3-0.3-2c-7.9-4-19.3-2.8-26,2.4c-7.2,5.7-8,11.3-17.3,14c0-0.4,0-0.8,0.1-1.2
		c11.6-26.6,27.1-52.1,46.5-75.8c-18.5,21.1-33.8,43.9-46,67.9c-0.3-15.4-1.6-29.6-13.6-40.7c-0.7,0.3-1.4,0.6-2.1,1
		C46,68.1,46,90.5,61.6,107.9c-6.8,16-12.3,32.5-16.4,49.2c-3.9-15-10.8-29.6-23.7-37.9c-0.6,0.5-1.2,0.9-1.8,1.4
		c-4.1,22.8,2,46.3,20.6,60c-2.8,16.5-4.4,33.1-4.7,49.8c-7.8-13.9-18-27.2-32.9-33.5c-0.5,0.6-1,1.2-1.5,1.7
		c1.6,24.1,13.5,46.3,34.9,56.8c0.9,16.4,3,32.7,6.4,48.8c-11.2-12.1-24.9-23.5-41.4-27.4c-0.3,0.7-0.7,1.3-1.1,2
		c7.5,23.7,24.3,43.5,48.7,50.6c4.5,15.6,10.2,31,17.1,46c-21.3-14.3-36.8-18.7-48.8-19.3c-0.2,0.7-0.4,1.5-0.6,2.2
		c13.4,22.1,34.6,38.5,61.7,41.3c8,14.3,17.2,28.1,27.5,41.3c-25.8-9.8-42.9-11.1-55.1-9.6c0,0.8,0,1.6,0,2.3
		c19.2,19.5,44.5,31.3,73.7,29.2c7.8,8.4,16.2,16.6,25.1,24.3c4-4.7,7.9-9.3,11.9-14c-10.1-8.3-19.6-17.1-28.5-26.3
		C129.6,433.1,133.8,431.9,136.3,419.4z"/>
	
		<linearGradient id="SVGID_2_" gradientUnits="userSpaceOnUse" x1="367.8589" y1="243.3186" x2="512.4508" y2="243.3186" gradientTransform="matrix(0.9966 -8.224612e-02 8.224612e-02 0.9966 -19.1468 21.8131)">
		<stop  offset="0" style="stop-color:#FFFF99"/>
		<stop  offset="1" style="stop-color:#FF9900"/>
	</linearGradient>
	<path class="st2" d="M463.7,342.6c4.3-15.9,7.4-32,9.3-48.1c20.4-9.8,35.8-30.5,39.7-57.9c-0.5-0.6-0.9-1.2-1.4-1.8
		c-15.7,6.5-27.3,20.1-36.3,33.8c0.6-16.4,0.1-32.9-1.7-49.2c19.4-13.9,27.4-37.8,25.1-61.8c-0.6-0.5-1.1-1-1.7-1.5
		c-13.6,8.6-21.5,23.3-27,38.5c-3-16.4-7.3-32.6-12.8-48.3c13.4-13.5,19.6-37.1,10.4-62.6c-0.7-0.4-1.3-0.7-2-1.1
		c-11.4,10.4-15.8,26-17.1,41.3C441.4,108,433.3,92.7,424,78c12.5-19.8,9-41.7-3.8-60.4c-0.7-0.2-1.5-0.4-2.2-0.6
		c-10,12.9-8.9,27.2-6.7,42.4c-16-21.7-34.8-41.6-56.5-59.4c23,20.2,42.4,42.8,58.3,67.2c0.1,0.4,0.2,0.8,0.3,1.2
		c-9.6-1.2-11.3-6.5-19.3-11c-7.4-4-18.9-3.3-26,1.9c0,0.7,0,1.3,0,2c5.7,6.2,17.1,13.3,25.3,13.3c14.5-0.2,11.8-6.7,28.1,7.5
		c0.1-0.2,0.3-0.5,0.4-0.7c9.9,17.2,18.2,35.1,24.7,53.5c-16.6-6.9-9.2-16.9-30-20.7c-4.6-0.7-9.3-0.9-14.5,1.1
		c-0.2,0.6-0.3,1.3-0.5,1.9c3.4,5.4,7.1,8.8,10.9,12c21.5,16.8,21.6-1.9,38.7,19.7c5.7,18.6,9.6,37.5,11.9,56.7
		c-16.7-13.5-5.1-18.3-25.6-27.2c-4.6-1.9-9.5-3.2-15.3-2.6c-0.3,0.6-0.6,1.2-0.9,1.7c4.1,10.5,13.7,21.1,20.2,24.4
		c12.4,6.2,14.7,1.5,22.8,16.9c1.5,19.7,1.2,39.4-0.9,59c-11-15.1-2.1-20-19.8-33.1c-4.4-3.1-9.1-5.7-15.1-6.6
		c-0.4,0.5-0.8,1-1.2,1.5c1.3,6.6,3.6,11.7,6.2,16.7c13.8,25,21.1,12,28.3,33.7c-2.9,19.9-7.6,39.5-14.3,58.6
		c-4.6-13.3-1-10.6-4-22.8c-2.6-10.2-12.1-21.7-22.2-26c-0.5,0.4-1,0.8-1.5,1.2c0,37.8,20.5,35.7,23.9,58.3
		c-7.4,19.2-16.8,37.8-28.1,55.6c-1.2-16,6.1-22.2-3.4-41.8c-2.8-5.5-6.1-10.5-11.4-14.6c-0.6,0.3-1.2,0.5-1.8,0.8
		c-2.3,11.5-1.1,29.3,2.2,38.4c4.6,11.9,8.9,12.5,8.2,26.5c-7.2,10.6-15.2,20.8-23.8,30.6c4.7,4,9.3,7.9,14,11.9
		c7.5-9.1,14.4-18.5,20.7-28.1c12.5-1.1,22.8-4.2,32-8.9c12.7-7.1,25.1-16.6,35.9-31.9c-0.1-0.8-0.3-1.5-0.4-2.3
		c-12.3,0.5-28.9,4.5-52.7,18.5c8-14.7,14.7-29.8,20.3-45.2c26.4-7.3,44.6-27,54.1-50.9c-0.3-0.7-0.6-1.4-0.9-2.1
		C496.9,318.1,482.4,325,463.7,342.6z"/>
</g>
<linearGradient id="SVGID_3_" gradientUnits="userSpaceOnUse" x1="91.1388" y1="258.2946" x2="419.2508" y2="258.2946" gradientTransform="matrix(0.9966 -8.224612e-02 8.224612e-02 0.9966 -19.1468 21.8131)">
	<stop  offset="0" style="stop-color:#FFFF99"/>
	<stop  offset="1" style="stop-color:#FF9900"/>
</linearGradient>
<polygon class="st3" points="243.6,102.7 292,218.4 416.9,208.1 321.9,289.8 370.3,405.4 263.2,340.3 168.2,422.1 197,300.1 
	89.9,235 214.8,224.7 "/>
</svg>
